<svg id="Layer_1" enable-background="new 0 0 256 256" height="512" viewBox="0 0 256 256" width="512" xmlns="http://www.w3.org/2000/svg"><g><g><path d="m8 70.154v47.871c0 2.384 1.918 4.359 4.302 4.364 19.107.033 34.607-15.446 34.607-34.545v-41.872h-14.727c-13.355 0-24.182 10.826-24.182 24.182z" fill="#a4c9ff"/></g><g><path d="m248 70.154v47.871c0 2.384-1.918 4.359-4.302 4.364-19.107.033-34.607-15.446-34.607-34.545v-41.872h14.727c13.355 0 24.182 10.826 24.182 24.182z" fill="#a4c9ff"/></g><g><path d="m12.364 124.389c-.022 0-.043 0-.065 0-3.473-.007-6.299-2.862-6.299-6.364v-47.871c0-14.437 11.745-26.182 26.182-26.182h14.728c1.104 0 2 .896 2 2v41.872c0 9.773-3.81 18.959-10.727 25.864-6.902 6.889-16.069 10.681-25.819 10.681zm19.818-76.417c-12.231 0-22.182 9.95-22.182 22.182v47.871c0 1.301 1.035 2.361 2.306 2.364 8.73-.001 16.891-3.363 23.05-9.512 6.16-6.149 9.553-14.33 9.553-23.033v-39.872z" fill="#3762cc"/></g><g><path d="m243.636 124.389c-9.751 0-18.917-3.792-25.819-10.682-6.917-6.905-10.727-16.09-10.727-25.864v-41.871c0-1.104.896-2 2-2h14.728c14.437 0 26.182 11.745 26.182 26.182v47.871c0 3.502-2.826 6.357-6.298 6.364-.022 0-.044 0-.066 0zm-32.545-76.417v39.872c0 8.704 3.393 16.884 9.553 23.033 6.146 6.135 14.31 9.512 22.993 9.512h.058c1.271-.002 2.306-1.063 2.306-2.364v-47.871c0-12.231-9.951-22.182-22.182-22.182z" fill="#3762cc"/></g><g><path d="m34.909 45.972 7.473 94.752c.331 4.192 2.655 7.97 6.247 10.155l10.045 6.11c1.952 1.188 3.144 3.307 3.144 5.592v32.481c0 3.528 2.416 6.596 5.845 7.423l41.808 10.086c3.685.889 7.575.137 10.663-2.062l7.866-5.599 7.866 5.601c3.088 2.199 6.978 2.951 10.663 2.062l41.808-10.086c3.429-.827 5.845-3.896 5.845-7.423v-32.481c0-2.285 1.192-4.405 3.144-5.592l10.045-6.11c3.592-2.185 5.917-5.963 6.247-10.155l7.473-94.752h-186.182z" fill="#e0ebfc"/></g><g><path d="m185.273 45.972h-114.546v157.253l38.744 9.347c3.685.889 7.575.137 10.663-2.062l7.866-5.6 7.866 5.601c3.088 2.199 6.978 2.951 10.663 2.062l38.744-9.347z" fill="#a4c9ff"/></g><g><path d="m143.458 214.938c-3.108 0-6.171-.961-8.752-2.798l-6.706-4.775-6.706 4.775c-3.563 2.535-8.041 3.402-12.292 2.377l-41.808-10.087c-4.343-1.048-7.376-4.9-7.376-9.368v-32.481c0-1.576-.836-3.064-2.184-3.884l-10.044-6.11c-4.129-2.511-6.821-6.887-7.201-11.706l-7.474-94.752c-.044-.556.146-1.105.525-1.515s.911-.643 1.469-.643h186.182c.558 0 1.09.233 1.469.643s.569.958.525 1.515l-7.474 94.752c-.38 4.819-3.072 9.195-7.202 11.707l-10.044 6.109c-1.347.819-2.184 2.308-2.184 3.884v32.481c0 4.467-3.033 8.319-7.376 9.368l-41.808 10.086c-1.17.283-2.358.422-3.539.422zm-15.458-12.028c.406 0 .813.124 1.16.371l7.866 5.601c2.618 1.864 5.91 2.5 9.034 1.747l41.808-10.086c2.541-.613 4.314-2.866 4.314-5.479v-32.481c0-2.963 1.573-5.761 4.104-7.301l10.044-6.11c3.035-1.846 5.014-5.062 5.293-8.604l7.303-92.595h-181.853l7.303 92.595c.279 3.542 2.258 6.758 5.292 8.603l10.045 6.11c2.532 1.54 4.104 4.337 4.104 7.301v32.481c0 2.613 1.774 4.866 4.314 5.479l41.808 10.086c3.125.753 6.417.117 9.034-1.747l7.866-5.601c.348-.247.755-.37 1.161-.37z" fill="#3762cc"/></g><g><path d="m143.458 214.938c-3.108 0-6.171-.961-8.752-2.798l-6.706-4.775-6.706 4.775c-3.563 2.535-8.041 3.402-12.292 2.377l-38.744-9.347c-.898-.217-1.531-1.021-1.531-1.944v-157.254c0-1.104.896-2 2-2h114.546c1.104 0 2 .896 2 2v157.253c0 .924-.633 1.728-1.531 1.944l-38.744 9.347c-1.171.283-2.359.422-3.54.422zm-15.458-12.028c.406 0 .813.124 1.16.371l7.866 5.601c2.618 1.864 5.91 2.5 9.034 1.747l37.213-8.978v-153.679h-110.546v153.678l37.213 8.978c3.126.755 6.417.117 9.034-1.747l7.866-5.601c.347-.247.754-.37 1.16-.37z" fill="#3762cc"/></g><g><path d="m181.394 45.972h-106.788l45.212 43.108v121.631c.104-.07.214-.128.316-.2l7.866-5.601 7.866 5.601c.102.073.212.131.316.2v-121.631z" fill="#e0ebfc"/></g><g><path d="m169.091 45.972h-82.182l36.26 34.573c2.704 2.578 6.957 2.578 9.661 0z" fill="#4671c6"/></g><g><path d="m230.909 43.063h-59.636c-1.205 0-2.182.977-2.182 2.182v23.375c0 18.62 14.327 33.715 32 33.715 17.673 0 32-15.095 32-33.715v-23.375c0-1.205-.977-2.182-2.182-2.182z" fill="#4671c6"/></g><g><path d="m90.182 175.79h-28.364v-11.273h28.364c1.807 0 3.273 1.465 3.273 3.273v4.727c0 1.808-1.466 3.273-3.273 3.273z" fill="#4671c6"/></g><g><path d="m83.636 193.245h-21.818v-11.273h21.818c1.807 0 3.273 1.465 3.273 3.273v4.727c0 1.807-1.465 3.273-3.273 3.273z" fill="#4671c6"/></g><g><path d="m165.818 175.79h28.364v-11.273h-28.364c-1.807 0-3.273 1.465-3.273 3.273v4.727c0 1.808 1.466 3.273 3.273 3.273z" fill="#4671c6"/></g><g><path d="m172.364 193.245h21.818v-11.273h-21.818c-1.807 0-3.273 1.465-3.273 3.273v4.727c0 1.807 1.465 3.273 3.273 3.273z" fill="#4671c6"/></g><g><path d="m90.182 177.79h-28.364c-1.104 0-2-.896-2-2v-11.273c0-1.104.896-2 2-2h28.363c2.908 0 5.273 2.365 5.273 5.273v4.727c.001 2.908-2.365 5.273-5.272 5.273zm-26.364-4h26.363c.702 0 1.273-.571 1.273-1.273v-4.727c0-.702-.571-1.273-1.273-1.273h-26.363z" fill="#3762cc"/></g><g><path d="m83.636 195.245h-21.818c-1.104 0-2-.896-2-2v-11.273c0-1.104.896-2 2-2h21.818c2.908 0 5.273 2.365 5.273 5.273v4.727c0 2.907-2.365 5.273-5.273 5.273zm-19.818-4h19.818c.702 0 1.273-.571 1.273-1.273v-4.727c0-.702-.571-1.273-1.273-1.273h-19.818z" fill="#3762cc"/></g><g><path d="m194.182 177.79h-28.363c-2.908 0-5.273-2.365-5.273-5.273v-4.727c0-2.908 2.365-5.273 5.273-5.273h28.363c1.104 0 2 .896 2 2v11.273c0 1.105-.896 2-2 2zm-28.364-11.273c-.702 0-1.273.571-1.273 1.273v4.727c0 .702.571 1.273 1.273 1.273h26.363v-7.273z" fill="#3762cc"/></g><g><path d="m194.182 195.245h-21.818c-2.908 0-5.273-2.365-5.273-5.273v-4.727c0-2.908 2.365-5.273 5.273-5.273h21.818c1.104 0 2 .896 2 2v11.273c0 1.104-.896 2-2 2zm-21.818-11.273c-.702 0-1.273.571-1.273 1.273v4.727c0 .702.571 1.273 1.273 1.273h19.818v-7.273z" fill="#3762cc"/></g><g><path d="m128 84.483c-2.235 0-4.469-.83-6.21-2.49l-36.261-34.574c-.591-.564-.78-1.432-.477-2.19.304-.759 1.04-1.257 1.857-1.257h82.182c.817 0 1.553.498 1.857 1.257s.115 1.626-.477 2.19l-36.26 34.573c-1.742 1.661-3.976 2.491-6.211 2.491zm-36.095-36.511 32.645 31.126c1.936 1.844 4.966 1.845 6.901 0l32.644-31.125h-72.19z" fill="#3762cc"/></g><g><path d="m136.182 212.71c-.389 0-.777-.114-1.113-.338-.164-.099-.266-.163-.364-.233l-6.705-4.774-6.706 4.775c-.098.069-.2.133-.302.195-.613.411-1.433.469-2.085.121-.651-.348-1.088-1.007-1.088-1.746v-120.773l-44.593-42.518c-.591-.564-.78-1.432-.477-2.19.304-.759 1.04-1.257 1.857-1.257h106.787c.817 0 1.553.498 1.857 1.257s.115 1.626-.477 2.19l-44.592 42.518v120.773c0 .738-.407 1.417-1.058 1.764-.295.158-.619.236-.941.236zm-8.182-9.8c.406 0 .813.124 1.16.371l5.021 3.576v-117.777c0-.547.224-1.07.62-1.447l41.597-39.661h-96.796l41.597 39.661c.396.377.62.9.62 1.447v117.772l5.021-3.572c.347-.247.754-.37 1.16-.37z" fill="#3762cc"/></g><g><path d="m84.727 43.063h-59.636c-1.205 0-2.182.977-2.182 2.182v23.375c0 18.62 14.327 33.715 32 33.715 17.673 0 32-15.095 32-33.715v-23.375c0-1.205-.977-2.182-2.182-2.182z" fill="#4671c6"/></g><g><path d="m230.909 43.063h-59.636c-1.205 0-2.182.977-2.182 2.182v23.375c0 18.62 14.327 33.715 32 33.715 17.673 0 32-15.095 32-33.715v-23.375c0-1.205-.977-2.182-2.182-2.182z" fill="#4671c6"/></g><g><path d="m201.091 94.335c-13.234 0-24-11.536-24-25.715v-25.557c0-1.104.896-2 2-2h44c1.104 0 2 .896 2 2v25.557c0 14.18-10.766 25.715-24 25.715zm-20-49.272v23.557c0 11.974 8.972 21.715 20 21.715s20-9.741 20-21.715v-23.557z" fill="#3762cc"/></g><g><path d="m54.788 94.335c-13.234 0-24-11.536-24-25.715v-25.557c0-1.104.896-2 2-2h44c1.104 0 2 .896 2 2v25.557c0 14.18-10.766 25.715-24 25.715zm-20-49.272v23.557c0 11.974 8.972 21.715 20 21.715s20-9.741 20-21.715v-23.557z" fill="#3762cc"/></g><g><path d="m54.909 104.335c-18.748 0-34-16.022-34-35.715v-23.375c0-2.306 1.876-4.182 4.182-4.182h59.636c2.306 0 4.182 1.876 4.182 4.182v23.375c0 19.693-15.252 35.715-34 35.715zm-29.818-59.272c-.1 0-.182.082-.182.182v23.375c0 17.488 13.458 31.715 30 31.715s30-14.228 30-31.715v-23.375c0-.101-.082-.182-.182-.182z" fill="#3762cc"/></g><g><path d="m201.091 104.335c-18.748 0-34-16.022-34-35.715v-23.375c0-2.306 1.876-4.182 4.182-4.182h59.636c2.306 0 4.182 1.876 4.182 4.182v23.375c0 19.693-15.253 35.715-34 35.715zm-29.818-59.272c-.101 0-.182.082-.182.182v23.375c0 17.488 13.458 31.715 30 31.715s30-14.228 30-31.715v-23.375c0-.101-.082-.182-.182-.182z" fill="#3762cc"/></g><g><path d="m128 206.91c-1.104 0-2-.896-2-2v-122.431c0-1.104.896-2 2-2s2 .896 2 2v122.431c0 1.104-.896 2-2 2z" fill="#3762cc"/></g><g><path d="m112.73 140.166c-1.186 0-2.359-.524-3.148-1.529-1.365-1.737-1.063-4.252.674-5.616l30.546-24c1.738-1.365 4.252-1.063 5.617.674s1.063 4.252-.674 5.616l-30.546 24c-.733.575-1.605.855-2.469.855z" fill="#4671c6"/></g><g><path d="m112.73 142.166c-1.855 0-3.576-.836-4.721-2.293-.99-1.26-1.43-2.831-1.239-4.422s.991-3.013 2.251-4.003l30.545-24c1.261-.99 2.828-1.431 4.423-1.239 1.591.191 3.013.99 4.002 2.25.99 1.26 1.43 2.831 1.239 4.422s-.991 3.013-2.251 4.003l-30.545 24c-1.052.826-2.368 1.282-3.704 1.282zm30.54-32c-.446 0-.876.148-1.232.428l-30.545 24c-.42.33-.687.804-.75 1.334-.063.531.083 1.054.413 1.474.382.486.956.765 1.576.765.314 0 .783-.074 1.232-.427l30.546-24c.42-.33.687-.804.75-1.334s-.083-1.054-.413-1.474-.804-.686-1.334-.75c-.082-.012-.163-.016-.243-.016z" fill="#3762cc"/></g><g><path d="m112.73 187.802c-1.186 0-2.359-.524-3.148-1.529-1.365-1.737-1.063-4.252.674-5.616l30.546-24c1.738-1.365 4.252-1.063 5.617.674s1.063 4.252-.674 5.616l-30.546 24c-.733.576-1.605.855-2.469.855z" fill="#4671c6"/></g><g><path d="m143.27 140.166c-.865 0-1.736-.279-2.468-.855l-30.546-24c-1.737-1.365-2.039-3.879-.674-5.616s3.88-2.039 5.617-.674l30.546 24c1.737 1.365 2.039 3.879.674 5.616-.79 1.004-1.963 1.529-3.149 1.529z" fill="#4671c6"/></g><g><path d="m143.27 142.166c-1.336 0-2.652-.456-3.704-1.283l-30.546-24c-1.26-.99-2.059-2.412-2.25-4.003s.249-3.162 1.239-4.422c.991-1.261 2.413-2.06 4.003-2.25 1.592-.194 3.163.249 4.422 1.24l30.545 24c1.26.99 2.059 2.412 2.25 4.003s-.249 3.162-1.239 4.422c-1.145 1.457-2.865 2.293-4.72 2.293zm-30.539-32c-.081 0-.161.004-.242.014-.531.064-1.005.331-1.335.75-.33.42-.476.943-.413 1.474s.33 1.004.75 1.334l30.546 24c.45.354.918.428 1.232.428.619 0 1.194-.279 1.576-.765.33-.42.476-.943.413-1.474-.063-.53-.33-1.004-.75-1.334l-30.546-24c-.355-.28-.785-.427-1.231-.427z" fill="#3762cc"/></g><g><path d="m112.73 189.802c-1.855 0-3.576-.836-4.721-2.293-.99-1.26-1.43-2.831-1.239-4.422s.991-3.013 2.251-4.003l30.545-24c1.261-.99 2.828-1.43 4.423-1.239 1.591.191 3.013.99 4.002 2.25.99 1.26 1.43 2.831 1.239 4.422s-.991 3.013-2.251 4.003l-30.545 24c-1.052.827-2.368 1.282-3.704 1.282zm30.54-32c-.446 0-.876.148-1.232.428l-30.545 24c-.42.33-.687.804-.75 1.334-.063.531.083 1.054.413 1.474.382.486.956.765 1.576.765.314 0 .783-.074 1.232-.427l30.546-24c.42-.33.687-.804.75-1.334s-.083-1.054-.413-1.474-.804-.686-1.334-.75c-.082-.011-.163-.016-.243-.016z" fill="#3762cc"/></g><g><path d="m143.27 187.802c-.865 0-1.736-.279-2.468-.855l-30.546-24c-1.737-1.365-2.039-3.879-.674-5.616s3.88-2.039 5.617-.674l30.546 24c1.737 1.365 2.039 3.879.674 5.616-.79 1.004-1.963 1.529-3.149 1.529z" fill="#4671c6"/></g><g><path d="m143.27 189.802c-1.336 0-2.652-.456-3.704-1.283l-30.546-24c-1.26-.99-2.059-2.412-2.25-4.003s.249-3.162 1.239-4.422c2.045-2.602 5.825-3.056 8.425-1.011l30.546 24c1.26.99 2.059 2.412 2.25 4.003s-.249 3.162-1.239 4.422c-1.146 1.458-2.866 2.294-4.721 2.294zm-30.541-31.999c-.593 0-1.181.262-1.575.764-.33.42-.476.943-.413 1.474s.33 1.004.75 1.334l30.546 24c.45.354.918.428 1.232.428.619 0 1.194-.279 1.576-.765.33-.42.476-.943.413-1.474-.063-.53-.33-1.004-.75-1.334l-30.546-24c-.365-.288-.8-.427-1.233-.427z" fill="#3762cc"/></g></g></svg>